<?xml version="1.0" encoding="UTF-8"?>
<!DOCTYPE svg PUBLIC "-//W3C//DTD SVG 1.1//EN" "http://www.w3.org/Graphics/SVG/1.1/DTD/svg11.dtd">
<svg xmlns="http://www.w3.org/2000/svg" version="1.1" width="3633px" height="3633px" style="shape-rendering:geometricPrecision; text-rendering:geometricPrecision; image-rendering:optimizeQuality; fill-rule:evenodd; clip-rule:evenodd" xmlns:xlink="http://www.w3.org/1999/xlink">
<g><path style="opacity:0.997" fill="#333232" d="M 1754.5,-0.5 C 1795.5,-0.5 1836.5,-0.5 1877.5,-0.5C 2288.46,17.048 2652.79,154.548 2970.5,412C 3245.4,640.429 3438.23,925.262 3549,1266.5C 3598.02,1422.6 3625.85,1582.27 3632.5,1745.5C 3632.5,1792.5 3632.5,1839.5 3632.5,1886.5C 3611.34,2319.91 3458.84,2698.91 3175,3023.5C 2936.92,3288.39 2645.75,3469.89 2301.5,3568C 2165.45,3605.12 2027.12,3626.62 1886.5,3632.5C 1839.5,3632.5 1792.5,3632.5 1745.5,3632.5C 1329.25,3612.41 961.92,3469.91 643.5,3205C 376.916,2977.56 189.749,2696.39 82,2361.5C 32.98,2203.71 5.47999,2042.38 -0.5,1877.5C -0.5,1836.5 -0.5,1795.5 -0.5,1754.5C 16.0676,1359.54 144.568,1006.54 385,695.5C 624.904,393.358 930.07,185.858 1300.5,73C 1448.9,29.5441 1600.23,5.04408 1754.5,-0.5 Z"/></g>
<g><path style="opacity:1" fill="#ec1b24" d="M 1766.5,199.5 C 2083.83,192.038 2378.49,269.204 2650.5,431C 2853.76,554.587 3022.43,714.92 3156.5,912C 2908.17,1055.5 2659.83,1199 2411.5,1342.5C 2276.46,1177.79 2102.46,1083.29 1889.5,1059C 1675.17,1041.45 1485.84,1101.12 1321.5,1238C 1169.09,1371.63 1081.59,1539.8 1059,1742.5C 1048.11,1862.57 1064.11,1978.91 1107,2091.5C 1107.67,2092.83 1107.67,2094.17 1107,2095.5C 863.752,2235.87 620.585,2376.37 377.5,2517C 372.778,2520.2 367.778,2522.53 362.5,2524C 226.54,2241 175.707,1943.17 210,1630.5C 253.296,1280.33 393.296,975.993 630,717.5C 831.645,501.691 1074.48,350.857 1358.5,265C 1491.93,226.373 1627.93,204.539 1766.5,199.5 Z"/></g>
<g><path style="opacity:1" fill="#fefffe" d="M 3267.5,1108.5 C 3268.5,1108.41 3269.33,1108.75 3270,1109.5C 3413.27,1409.4 3461.61,1724.07 3415,2053.5C 3357.23,2418.91 3196.4,2729.41 2932.5,2985C 2668,3234.21 2354,3380.21 1990.5,3423C 1651.03,3457.44 1331.69,3393.11 1032.5,3230C 808.171,3104.49 623.337,2935.32 478,2722.5C 477.333,2721.5 477.333,2720.5 478,2719.5C 725.667,2576.5 973.333,2433.5 1221,2290.5C 1339.98,2437.26 1492.81,2528.76 1679.5,2565C 1885.61,2599.32 2075.28,2558.65 2248.5,2443C 2418.91,2322.17 2524.41,2158.67 2565,1952.5C 2589.95,1810.51 2576.45,1672.34 2524.5,1538C 2772.23,1394.81 3019.9,1251.64 3267.5,1108.5 Z"/></g>
<g><path style="opacity:1" fill="#fefffe" d="M 1803.5,1270.5 C 1989.25,1271.3 2139.09,1344.3 2253,1489.5C 2351.09,1625.92 2382.42,1776.59 2347,1941.5C 2313.87,2073.03 2243.04,2178.86 2134.5,2259C 1996.8,2354.14 1846.13,2382.8 1682.5,2345C 1531.59,2303.71 1417.09,2215.54 1339,2080.5C 1269.68,1950.94 1253.35,1814.94 1290,1672.5C 1337.81,1510.67 1437.64,1393.17 1589.5,1320C 1657.66,1289.29 1729,1272.79 1803.5,1270.5 Z"/></g>
</svg>
